<svg xmlns="http://www.w3.org/2000/svg" xml:space="preserve" viewBox="251.33 421.08 288.78 280.35"><defs><clipPath id="a" clipPathUnits="userSpaceOnUse"><path d="M0 841.89h595.276V0H0Z"/></clipPath></defs><g clip-path="url(#a)" transform="matrix(1.33333 0 0 -1.33333 0 1122.52)"><path d="M0 0c1.788 2.773.552 5.042-2.748 5.042H-79.77c-3.299 0-7.464-2.267-9.255-5.039l-86.093-133.258c-1.79-2.771-1.814-7.322-.052-10.112l37.718-59.73c1.762-2.79 4.667-2.803 6.455-.03z" style="fill:#2b2b2a;fill-opacity:1;fill-rule:nonzero;stroke:none" transform="translate(404.251 521.023)"/><path d="M0 0c3.3 0 4.537-2.269 2.749-5.043l-46.354-71.903c-1.788-2.774-4.691-2.76-6.453.031L-95.385-5.074C-97.146-2.283-95.887 0-92.587 0Z" style="fill:#2b2b2a;fill-opacity:1;fill-rule:nonzero;stroke:none" transform="translate(284.687 526.065)"/></g></svg>